<?xml version="1.0" encoding="iso-8859-1"?>
<!-- Generator: Adobe Illustrator 19.0.0, SVG Export Plug-In . SVG Version: 6.00 Build 0)  -->
<svg xmlns="http://www.w3.org/2000/svg" xmlns:xlink="http://www.w3.org/1999/xlink" version="1.1" id="Capa_1" x="0px" y="0px" viewBox="0 0 470 470" style="enable-background:new 0 0 470 470;" xml:space="preserve" width="512px" height="512px">
<g>
	<path d="M357.717,0H112.283C94.767,0,80.516,14.25,80.516,31.767v406.467c0,17.516,14.25,31.767,31.767,31.767h245.434   c17.517,0,31.767-14.25,31.767-31.767V31.767C389.484,14.25,375.234,0,357.717,0z M95.516,79.711h278.967v310.578H95.516V79.711z    M112.283,15h245.434c9.245,0,16.767,7.521,16.767,16.767v32.944H95.516V31.767C95.516,22.521,103.038,15,112.283,15z M357.717,455   H112.283c-9.246,0-16.767-7.521-16.767-16.767v-32.944h278.967v32.944C374.484,447.479,366.962,455,357.717,455z" fill="#006DF0"/>
	<path d="M296.172,47.85c4.411,0,8-3.589,8-8s-3.589-8-8-8s-8,3.589-8,8S291.761,47.85,296.172,47.85z" fill="#006DF0"/>
	<path d="M256.234,422.645h-42.467c-4.142,0-7.5,3.358-7.5,7.5s3.358,7.5,7.5,7.5h42.467c4.143,0,7.5-3.358,7.5-7.5   S260.376,422.645,256.234,422.645z" fill="#006DF0"/>
	<path d="M213.767,47.355h42.467c4.143,0,7.5-3.358,7.5-7.5s-3.357-7.5-7.5-7.5h-42.467c-4.142,0-7.5,3.358-7.5,7.5   S209.625,47.355,213.767,47.355z" fill="#006DF0"/>
	<path d="M229.019,310.009c1.417,1.874,3.631,2.975,5.981,2.975s4.563-1.101,5.981-2.975l77.602-102.571   c7.131-9.425,10.9-20.665,10.9-32.504c0-29.73-24.188-53.917-53.917-53.917c-15.751,0-30.536,6.901-40.665,18.532   c-9.821-11.345-24.321-18.532-40.469-18.532c-29.73,0-53.917,24.187-53.917,53.917c0,11.841,3.769,23.081,10.9,32.504   L229.019,310.009z M194.433,136.016c21.24,0,38.52,17.28,38.52,38.52c0,4.142,3.357,7.5,7.5,7.5s7.5-3.358,7.5-7.5   c0-7.655-1.616-14.941-4.523-21.532c7.213-10.559,19.226-16.987,32.137-16.987c21.459,0,38.917,17.458,38.917,38.917   c0,8.546-2.719,16.656-7.862,23.454L235,293.053l-71.622-94.667c-5.143-6.797-7.862-14.907-7.862-23.454   C155.516,153.474,172.974,136.016,194.433,136.016z" fill="#006DF0"/>
	<path d="M321.984,333.984H148.016c-4.142,0-7.5,3.358-7.5,7.5s3.358,7.5,7.5,7.5h173.967c4.143,0,7.5-3.358,7.5-7.5   S326.126,333.984,321.984,333.984z" fill="#006DF0"/>
</g>
<g>
</g>
<g>
</g>
<g>
</g>
<g>
</g>
<g>
</g>
<g>
</g>
<g>
</g>
<g>
</g>
<g>
</g>
<g>
</g>
<g>
</g>
<g>
</g>
<g>
</g>
<g>
</g>
<g>
</g>
</svg>
